<svg height="459pt" viewBox="0 -34 459.99713 459" width="459pt" xmlns="http://www.w3.org/2000/svg"><path d="m332.457031 324.828125h-119.730469c-5.523437 0-10-4.480469-10-10 0-5.523437 4.476563-10 10-10h119.730469c59.394531 0 107.539063-48.148437 107.539063-107.542969 0-59.390625-48.144532-107.539062-107.539063-107.539062-5.523437 0-10-4.476563-10-10 0-5.523438 4.476563-10 10-10 70.4375 0 127.539063 57.101562 127.539063 127.539062s-57.101563 127.542969-127.539063 127.542969zm0 0" fill="#00acea"/><path d="m272.726562 392.535156c-2.703124.003906-5.289062-1.089844-7.171874-3.03125l-64.589844-66.457031c-3.757813-3.871094-3.773438-10.027344-.027344-13.910156l64.589844-67.019531c2.472656-2.597657 6.148437-3.671876 9.632812-2.8125 3.480469.855468 6.238282 3.515624 7.222656 6.960937.984376 3.449219.046876 7.160156-2.457031 9.730469l-57.871093 60.050781 57.84375 59.519531c2.800781 2.882813 3.605468 7.160156 2.042968 10.863282-1.566406 3.699218-5.195312 6.105468-9.214844 6.105468zm0 0" fill="#00acea"/><path d="m194.796875 3.566406c-2.484375-2.582031-6.164063-3.6406248-9.640625-2.765625-3.476562.871094-6.222656 3.539063-7.191406 6.988281-.972656 3.453126-.019532 7.160157 2.492187 9.71875l48.574219 49.980469h-101.132812c-45.652344-.128906-87.890626 24.152344-110.75 63.664063-22.863282 39.515625-22.863282 88.234375 0 127.746094 22.859374 39.515624 65.097656 63.796874 110.75 63.667968 5.523437 0 10-4.476562 10-10 0-5.523437-4.476563-10-10-10-59.394532 0-107.542969-48.148437-107.542969-107.539062 0-59.394532 48.148437-107.542969 107.542969-107.542969h100.320312l-47.789062 49.59375c-2.503907 2.566406-3.441407 6.277344-2.457032 9.726563.984375 3.449218 3.742188 6.105468 7.222656 6.960937 3.484376.859375 7.160157-.214844 9.632813-2.808594l64.589844-67.023437c3.746093-3.882813 3.730469-10.039063-.027344-13.90625zm0 0" fill="#083863"/></svg>